<?xml version="1.0" encoding="utf-8"?>
<svg xmlns="http://www.w3.org/2000/svg" xmlns:xlink="http://www.w3.org/1999/xlink" style="margin: auto; background: none; display: block; shape-rendering: auto;" width="54px" height="54px" viewBox="0 0 100 100" preserveAspectRatio="xMidYMid">
<g transform="translate(50 50)">
<g>
<animateTransform attributeName="transform" type="rotate" values="0;36" keyTimes="0;1" dur="0.25974025974025977s" repeatCount="indefinite"></animateTransform><path d="M23.664319132398465 -4 L31.664319132398465 -4 L31.664319132398465 4 L23.664319132398465 4 A24 24 0 0 1 21.49597734759246 10.67346981406664 L21.49597734759246 10.67346981406664 L27.96811330259204 15.375751832406426 L23.265831284252258 21.847887787406002 L16.793695329252678 17.14560576906622 A24 24 0 0 1 11.116902837403952 21.270036937055846 L11.116902837403952 21.270036937055846 L13.589038792403532 28.878489067417075 L5.980586662042304 31.35062502241665 L3.5084507070427247 23.74217289205542 A24 24 0 0 1 -3.508450707042722 23.74217289205542 L-3.508450707042722 23.74217289205542 L-5.980586662042301 31.35062502241665 L-13.589038792403528 28.878489067417075 L-11.116902837403948 21.270036937055846 A24 24 0 0 1 -16.793695329252674 17.145605769066222 L-16.793695329252674 17.145605769066222 L-23.265831284252254 21.84788778740601 L-27.968113302592037 15.37575183240643 L-21.495977347592458 10.673469814066642 A24 24 0 0 1 -23.664319132398465 4.000000000000002 L-23.664319132398465 4.000000000000002 L-31.664319132398465 4.000000000000003 L-31.664319132398465 -3.9999999999999956 L-23.664319132398465 -3.9999999999999964 A24 24 0 0 1 -21.49597734759246 -10.673469814066639 L-21.49597734759246 -10.673469814066639 L-27.96811330259204 -15.375751832406422 L-23.26583128425226 -21.847887787406002 L-16.79369532925268 -17.14560576906622 A24 24 0 0 1 -11.116902837403963 -21.27003693705584 L-11.116902837403963 -21.27003693705584 L-13.589038792403542 -28.878489067417064 L-5.980586662042298 -31.35062502241665 L-3.5084507070427176 -23.742172892055425 A24 24 0 0 1 3.508450707042708 -23.742172892055425 L3.508450707042708 -23.742172892055425 L5.980586662042286 -31.350625022416654 L13.589038792403533 -28.87848906741707 L11.116902837403956 -21.270036937055842 A24 24 0 0 1 16.793695329252664 -17.14560576906623 L16.793695329252664 -17.14560576906623 L23.265831284252243 -21.847887787406016 L27.96811330259204 -15.375751832406422 L21.49597734759246 -10.673469814066637 A24 24 0 0 1 23.66431913239846 -4.000000000000016 M0 -20A20 20 0 1 0 0 20 A20 20 0 1 0 0 -20" fill="#f56033"></path></g></g>
</svg>